<svg xmlns="http://www.w3.org/2000/svg" viewBox="0 0 30 30" fill="#fff"><path d="M18.69 7.12c0-.31-.25-.55-.55-.55h-1.77c-.3 0-.55.24-.55.55v5.42h2.88V7.12Zm-5.93 8.18c.79 0 1.44-.14 1.44-.69V7.12c0-.31-.25-.55-.55-.55h-1.77c-.3 0-.55.24-.55.55v7.49c0 .55.65.69 1.44.69Zm9.86-8.73h-1.77c-.3 0-.55.24-.55.55v5.42h2.88V7.12c0-.31-.25-.55-.55-.55ZM14.2 18.22v-.39c0-.24-.2-.44-.44-.44H7.41c-.3 0-.55.25-.55.55v2.79c0 .53.27 1.04.72 1.33l2.77 1.81c.92.6 2.04.81 3.12.58 2.76-.57 6.46-1.71 8.66-2.67.64-.27 1.05-.91 1.05-1.6v-1.41h-8.42c-.3 0-.55-.25-.55-.55ZM8.27 15.3c.79 0 1.44-.14 1.44-.69V7.12c0-.31-.25-.55-.55-.55H7.39c-.3 0-.55.24-.55.55v7.49c0 .55.65.69 1.44.69Zm7.54.36c0 .95.18 1.73.83 1.73h6.53v-3.47h-6.53c-.66 0-.83.78-.83 1.74Z"/></svg>
